<?xml version="1.0" encoding="UTF-8" standalone="no"?>
<svg width="180px" height="80px" viewBox="0 0 180 80" version="1.1" xmlns="http://www.w3.org/2000/svg" xmlns:xlink="http://www.w3.org/1999/xlink">
    <!-- Generator: Sketch 42 (36781) - http://www.bohemiancoding.com/sketch -->
    <title>logo</title>
    <desc>Created with Sketch.</desc>
    <defs>
        <linearGradient x1="50%" y1="0%" x2="50%" y2="100%" id="linearGradient-1">
            <stop stop-color="#FF0000" offset="0%"></stop>
            <stop stop-color="#E50000" offset="100%"></stop>
        </linearGradient>
        <polygon id="path-2" points="122.628096 48.9112482 0.0682638796 48.9112482 0.0682638796 0.534219269 61.3481798 0.534219269 122.628096 0.534219269"></polygon>
        <polygon id="path-4" points="122.628096 48.9112482 0.0682638796 48.9112482 0.0682638796 0.534219269 61.3481798 0.534219269 122.628096 0.534219269"></polygon>
        <polygon id="path-6" points="122.628096 48.9112482 0.0682638796 48.9112482 0.0682638796 0.534219269 61.3481798 0.534219269 122.628096 0.534219269"></polygon>
    </defs>
    <g id="Page-1" stroke="none" stroke-width="1" fill="none" fill-rule="evenodd">
        <g id="logo">
            <g id="Symbols">
                <g id="header">
                    <g id="logo">
                        <g id="Group">
                            <rect id="bg" fill="url(#linearGradient-1)" fill-rule="nonzero" x="0" y="0" width="180" height="80"></rect>
                            <g id="FlowserveLogo-white" transform="translate(24.000000, 15.000000)">
                                <g id="Group-5">
                                    <g id="Fill-1-Clipped">
                                        <mask id="mask-3" fill="white">
                                            <use xlink:href="#path-2"></use>
                                        </mask>
                                        <g id="path-1"></g>
                                        <path d="M63.5855284,12.2050308 C58.2689099,5.72377788 47.8541174,0.534219269 36.2276409,0.534219269 C28.9211303,0.534219269 22.0936046,2.5833887 16.2854862,6.13953488 L18.7498123,9.55671571 C23.8616391,6.49492169 29.8381418,4.73165638 36.2276409,4.73165638 C45.2191316,4.73165638 53.3960067,8.22059801 57.7819609,12.2050308 L63.5855284,12.2050308" id="Fill-1" fill="#FFFFFF" fill-rule="nonzero" mask="url(#mask-3)"></path>
                                    </g>
                                    <g id="Fill-3-Clipped">
                                        <mask id="mask-5" fill="white">
                                            <use xlink:href="#path-4"></use>
                                        </mask>
                                        <g id="path-1"></g>
                                        <path d="M80.3124544,36.906692 C84.8053554,41.158804 93.1221714,44.7798766 102.287735,44.7798766 C108.91502,44.7798766 115.096314,42.8810631 120.331016,39.6062648 L122.628096,43.1179877 C116.73351,46.8256289 109.76263,48.9795918 102.287735,48.9795918 C90.5053894,48.9795918 79.971135,43.6499288 74.580564,36.906692 L80.3124544,36.906692" id="Fill-3" fill="#FFFFFF" fill-rule="nonzero" mask="url(#mask-5)"></path>
                                    </g>
                                    <g id="Fill-4-Clipped">
                                        <mask id="mask-7" fill="white">
                                            <use xlink:href="#path-6"></use>
                                        </mask>
                                        <g id="path-1"></g>
                                        <polyline id="Fill-4" fill="#FFFFFF" fill-rule="nonzero" mask="url(#mask-7)" points="4.48379916 19.6818225 4.48379916 22.5670622 9.40221169 22.5670622 9.40221169 26.3692454 4.48379916 26.3692454 4.48379916 33.1489321 0 33.1489321 0 15.8796393 9.90622667 15.8796393 9.90622667 19.6818225 4.48379916 19.6818225"></polyline>
                                    </g>
                                </g>
                                <polyline id="Fill-6" fill="#FFFFFF" fill-rule="nonzero" points="16.1216529 29.347888 21.4974334 29.347888 21.4974334 33.1489321 11.6378537 33.1489321 11.6378537 15.8796393 16.1216529 15.8796393 16.1216529 29.347888"></polyline>
                                <path d="M39.8080814,24.1936402 C39.8080814,29.78187 35.8044049,33.7218794 30.2682042,33.7218794 C24.7320036,33.7218794 20.7283271,29.78187 20.7283271,24.1936402 C20.7283271,18.9710489 25.3042825,15.306692 30.2682042,15.306692 C35.232126,15.306692 39.8080814,18.9710489 39.8080814,24.1936402 L39.8080814,24.1936402 Z M25.395301,24.2164215 C25.395301,27.1950641 27.5911224,29.3695301 30.2682042,29.3695301 C32.9441483,29.3695301 35.1411075,27.1950641 35.1411075,24.2164215 C35.1411075,21.8346464 32.9441483,19.6590413 30.2682042,19.6590413 C27.5911224,19.6590413 25.395301,21.8346464 25.395301,24.2164215 L25.395301,24.2164215 Z" id="Fill-7" fill="#FFFFFF" fill-rule="nonzero"></path>
                                <polyline id="Fill-8" fill="#FFFFFF" fill-rule="nonzero" points="46.6265053 27.0333175 46.6720145 27.0333175 50.2877247 15.8796393 53.8556501 15.8796393 57.2415385 27.0333175 57.2881855 27.0333175 60.5364085 15.8796393 65.2033824 15.8796393 59.6899364 33.1489321 55.113981 33.1489321 52.094442 23.1400095 52.0489328 23.1400095 48.6630443 33.1489321 44.1109813 33.1489321 38.962747 15.8796393 43.6297209 15.8796393 46.6265053 27.0333175"></polyline>
                                <path d="M74.6761334,20.3231134 C73.8524159,19.635121 72.8000144,19.1783579 71.7021037,19.1783579 C70.8783862,19.1783579 69.7804755,19.6590413 69.7804755,20.6215472 C69.7804755,21.6284765 70.9921594,22.0180351 71.7703676,22.2697674 L72.9137876,22.6149027 C75.3166761,23.3233982 77.1700405,24.5376364 77.1700405,27.3317513 C77.1700405,29.0505933 76.757044,30.8138586 75.38494,31.9813953 C74.0355907,33.12729 72.2277356,33.6079734 70.4892821,33.6079734 C68.3162153,33.6079734 66.1886577,32.8744186 64.4263119,31.6373991 L66.3479401,28.0197437 C67.4697432,29.0038918 68.7963379,29.8057902 70.328862,29.8057902 C71.3812635,29.8057902 72.5030666,29.2784053 72.5030666,28.0653061 C72.5030666,26.8055055 70.7407207,26.3692454 69.7804755,26.0947318 C66.9657282,25.2928334 65.1123639,24.5615567 65.1123639,21.2161367 C65.1123639,17.7123873 67.6062709,15.4217371 71.0604232,15.4217371 C72.8000144,15.4217371 74.927572,15.9707641 76.4600961,16.8421452 L74.6761334,20.3231134" id="Fill-9" fill="#FFFFFF" fill-rule="nonzero"></path>
                                <polyline id="Fill-10" fill="#FFFFFF" fill-rule="nonzero" points="83.2773822 19.6818225 83.2773822 22.5670622 88.3323225 22.5670622 88.3323225 26.3692454 83.2773822 26.3692454 83.2773822 29.347888 88.6076535 29.347888 88.6076535 33.1489321 78.7924453 33.1489321 78.7924453 15.8796393 88.6076535 15.8796393 88.6076535 19.6818225 83.2773822 19.6818225"></polyline>
                                <path d="M105.281106,33.1489321 L99.6982585,33.1489321 L95.4670357,26.5070717 L95.4215264,26.5070717 L95.4215264,33.1489321 L90.9365895,33.1489321 L90.9365895,15.8796393 L97.6401025,15.8796393 C101.048746,15.8796393 103.632533,17.5062174 103.632533,21.1933555 C103.632533,23.5751305 102.307076,25.6379687 99.8586786,26.0719506 L105.281106,33.1489321 L105.281106,33.1489321 Z M95.4215264,23.621832 L95.8561398,23.621832 C97.3204,23.621832 98.9666972,23.3461794 98.9666972,21.4690081 C98.9666972,19.5906977 97.3204,19.3161841 95.8561398,19.3161841 L95.4215264,19.3161841 L95.4215264,23.621832 L95.4215264,23.621832 Z" id="Fill-11" fill="#FFFFFF" fill-rule="nonzero"></path>
                                <polyline id="Fill-12" fill="#FFFFFF" fill-rule="nonzero" points="112.104081 26.3692454 116.288657 15.8796393 121.162698 15.8796393 113.795887 33.1489321 110.317843 33.1489321 103.067081 15.8796393 107.939984 15.8796393 112.104081 26.3692454"></polyline>
                                <polyline id="Fill-13" fill="#FFFFFF" fill-rule="nonzero" points="126.335962 19.6818225 126.335962 22.5670622 131.389765 22.5670622 131.389765 26.3692454 126.335962 26.3692454 126.335962 29.347888 131.666233 29.347888 131.666233 33.1489321 121.851025 33.1489321 121.851025 15.8796393 131.666233 15.8796393 131.666233 19.6818225 126.335962 19.6818225"></polyline>
                                <path d="M124.759066,38.134599 C124.759066,37.3475083 125.350687,36.7574751 126.110691,36.7574751 C126.860456,36.7574751 127.456627,37.3475083 127.456627,38.134599 C127.456627,38.9330802 126.860456,39.5208353 126.110691,39.5208353 C125.350687,39.5208353 124.759066,38.9330802 124.759066,38.134599 L124.759066,38.134599 Z M126.110691,39.7964879 C127.015188,39.7964879 127.789983,39.0948268 127.789983,38.134599 C127.789983,37.1812055 127.015188,36.4818225 126.110691,36.4818225 C125.198231,36.4818225 124.425711,37.1812055 124.425711,38.134599 C124.425711,39.0948268 125.198231,39.7964879 126.110691,39.7964879 L126.110691,39.7964879 Z M125.759132,38.2667299 L126.093625,38.2667299 L126.59764,39.0948268 L126.921894,39.0948268 L126.379196,38.2542003 C126.660215,38.2188894 126.874109,38.0696725 126.874109,37.7256763 C126.874109,37.3475083 126.651114,37.1812055 126.197159,37.1812055 L125.470149,37.1812055 L125.470149,39.0948268 L125.759132,39.0948268 L125.759132,38.2667299 L125.759132,38.2667299 Z M125.759132,38.021832 L125.759132,37.4249644 L126.153925,37.4249644 C126.356441,37.4249644 126.57261,37.4705268 126.57261,37.7074514 C126.57261,38.003607 126.35189,38.021832 126.10614,38.021832 L125.759132,38.021832 L125.759132,38.021832 Z" id="Fill-14" fill="#FFFFFF" fill-rule="nonzero"></path>
                            </g>
                        </g>
                    </g>
                </g>
            </g>
        </g>
    </g>
</svg>