<?xml version="1.0" encoding="UTF-8"?>
<svg width="45px" height="45px" viewBox="0 0 45 45" version="1.1" xmlns="http://www.w3.org/2000/svg" xmlns:xlink="http://www.w3.org/1999/xlink">
    <!-- Generator: Sketch 42 (36781) - http://www.bohemiancoding.com/sketch -->
    <title>arrow</title>
    <desc>Created with Sketch.</desc>
    <defs></defs>
    <g id="Page-1" stroke="none" stroke-width="1" fill="none" fill-rule="evenodd">
        <g id="home" transform="translate(-731.000000, -1194.000000)">
            <g id="design" transform="translate(-249.000000, 0.000000)">
                <g id="industry" transform="translate(0.000000, 650.000000)">
                    <g id="nav" transform="translate(914.000000, 544.000000)">
                        <g id="arrow" transform="translate(66.000000, 0.000000)">
                            <path d="M22.5,3.515625 C32.985,3.515625 41.484375,12.015 41.484375,22.5 C41.484375,32.985 32.985,41.484375 22.5,41.484375 C12.015,41.484375 3.515625,32.985 3.515625,22.5 C3.515625,12.015 12.015,3.515625 22.5,3.515625 M22.5,45 C34.9270312,45 45,34.9270312 45,22.5 C45,10.0729688 34.9270312,0 22.5,0 C10.0729688,0 0,10.0729688 0,22.5 C0,34.9270312 10.0729688,45 22.5,45" id="Fill-1" fill="#EBEBEB"></path>
                            <circle id="Oval-9" fill="#FFFFFF" cx="22.5" cy="22.5" r="19.5"></circle>
                            <path d="M18.6932813,31.9317187 C19.243125,32.4815625 20.131875,32.4815625 20.6817188,31.9317187 L29.1192188,23.4942188 C29.6690625,22.944375 29.6690625,22.055625 29.1192188,21.5057812 L20.6817188,13.0682812 C20.4075,12.7940625 20.0475,12.65625 19.6875,12.65625 C19.3275,12.65625 18.9675,12.7940625 18.6932813,13.0682812 C18.1434375,13.618125 18.1434375,14.506875 18.6932813,15.0567188 L26.1365625,22.5 L18.6932813,29.9432812 C18.1434375,30.493125 18.1434375,31.381875 18.6932813,31.9317187" id="Fill-3" fill="#EBEBEB"></path>
                        </g>
                    </g>
                </g>
            </g>
        </g>
    </g>
</svg>